<svg xmlns="http://www.w3.org/2000/svg" xmlns:xlink="http://www.w3.org/1999/xlink" id="Layer_1" x="0px" y="0px" viewBox="0 0 1080 1080" style="enable-background:new 0 0 1080 1080;" xml:space="preserve"><style type="text/css">	.st0{fill:url(#SVGID_1_);}	.st1{fill:#F07B22;}	.st2{fill:url(#SVGID_00000039091685233309475540000006783361594533598631_);}	.st3{display:none;fill:#EE3D23;}	.st4{fill:#FFFFFF;}</style><g>	<g>		<linearGradient id="SVGID_1_" gradientUnits="userSpaceOnUse" x1="82.2028" y1="540" x2="329.415" y2="540">			<stop offset="0.4518" style="stop-color:#E48625"></stop>			<stop offset="0.8436" style="stop-color:#F0BC1A"></stop>		</linearGradient>		<path class="st0" d="M329.4,560.7c-15.1-9.5-34.9-4-58.2,2.3c-1.1,1.2-2.1,2.5-3.2,3.7c7,5.6,14.4,10.7,20.8,16.9   c10,9.7,20.8,19,28.5,30.3c22.5,32.7,8.4,70.3-30.2,82.7c-16.9,5.4-34,10.1-49.9,14.8c-10.1-3-20.3-6.7-30.8-9   c-28.7-6.5-57.3-13-86.2-18.3c-12.4-2.3-25.2,4.8-35.9,15.4c-7-16.8,2.7-17.4,38.4-26.6c2.2-15.9-0.5-46.6,20.7-41.3   c-8.2,8.1-1.4,15,5.9,20.7c23.5,18.3,47.2,14.7,76,7.4c16.4-4.1,27.2-20.1,22.2-36.3c-5-16-14.5-30.6-21.6-46   c-1.7-3.7-2.7-8.6-1.7-12.3c1.6-5.5,4.6-9.9,13-9.5c8.4,0.5,17.8-0.9,25.5-4.3c12.3-5.3,12.1-17-0.3-22.3   c-7.4-3.2-16.3-4.7-24.4-4.2c-9.4,0.6-11-5.7-13.3-11c-1.3-3,0-7.8,1.6-11.2c6.8-14.7,16.3-28.6,20.9-43.9   c5.7-18.9-5.9-34.6-25.8-38.8c-26.9-5.6-56.1-2.9-78,13.7c-7.2,5.5-15.8-6.4-5.9,3c-21.6,4.9-14.7-0.3-8.9-26.6   c-14.7-6.6-45.2,6-41.3-23.6c16.1,13.6,27.5,11.2,43.5,8.1c28.9-5.5,57.5-12.1,86.2-18.7c6.8-1.6,13.2-5,19.4-7.4   c14.7,4.4,30.2,9.1,45.7,13.6c21.8,6.3,38.9,17.1,44.2,40.4c3.2,14.4,0.3,27.8-8.2,39.1c-9.6,12.8-21.2,24.3-32,36.2   c-5.2,5.7-10.7,11.2-17.5,18.2c25.5,6.3,42.4,9,60.9-2.7"></path>		<rect x="327.5" y="542.6" class="st1" width="694.6" height="1.6"></rect>		<g>			<g>									<linearGradient id="SVGID_00000005245921968251402200000007816589405991223732_" gradientUnits="userSpaceOnUse" x1="57.8646" y1="540" x2="513.9789" y2="540">					<stop offset="0.1158" style="stop-color:#ED2D26"></stop>					<stop offset="1" style="stop-color:#F37B20"></stop>				</linearGradient>				<path style="fill:url(#SVGID_00000005245921968251402200000007816589405991223732_);" d="M514,542.9c0,2.4-2,4.3-4.4,4.1     c-46-2.8-111-4.4-156.2,5c-8.1,1.7-18.8,25.3-28.6,29.9c-16.6-10.5-36.4-24.3-62.3-16.6c-0.4,2.2-0.5,2.5-1,4.7     c7.2,5.7,14.8,11,21.3,17.3c10.8,10.5,22.5,20.6,30.9,32.8c24.3,35.5,9.1,76.1-32.7,89.6c-18.3,5.9-36.9,10.9-54,16     c-11-3.3-22-7.2-33.4-9.8c-31-7-62.1-14-93.4-19.9c-13.4-2.5-27.9-5.2-39.5,6.2c-7.6-18.2-2-23.2,36.6-33.1     c-4.7-30.4,5.2-44.5,28.1-38.8c-8.8,8.8-4.7,15.8,3.2,21.9c25.4,19.8,54.2,25.2,85.4,17.3c17.8-4.5,29.4-21.8,24-39.3     c-5.4-17.3-15.7-33.1-23.4-49.8c-1.8-4-3-9.3-1.8-13.3c1.8-5.9,4.9-10.8,14-10.3c9.1,0.5,19.3-1,27.6-4.6     c13.3-5.8,13.1-18.4-0.3-24.2c-8-3.5-17.7-5.1-26.4-4.5c-10.2,0.7-12-6.2-14.4-11.9c-1.4-3.3,0-8.5,1.7-12.1     c7.4-15.9,17.6-31,22.6-47.5c6.2-20.4-6.4-37.5-28-42c-29.1-6.1-56.1-0.9-79.7,17.2c-7.8,6-15.2,12.8-4.6,22.9     c-23.4,5.3-34-9.8-27.7-38.3c-15.9-7.2-43.2-2.5-39-34.6c17.5,14.7,35.6,8.7,52.9,5.4c31.3-5.9,62.3-13.1,93.3-20.2     c7.4-1.7,14.3-5.4,21.1-8c15.9,4.8,32.7,9.9,49.5,14.8c23.6,6.8,42.1,18.5,47.8,43.8c3.5,15.6,0.3,30.1-8.9,42.4     c-10.4,13.9-22.9,26.3-34.7,39.2c-5.7,6.2-11.6,12.2-18.9,19.8c27.6,6.8,47.2-4.9,67.2-17.7c13.8,19.9,18.5,33.7,37.9,36.7     c29.6,4.7,99.2,13.1,143.3,5.6C511.7,538.4,514,540.3,514,542.9L514,542.9z"></path>				<path class="st3" d="M245.6,735.1c-11.2-3.4-22.4-7.6-33.9-10.3c-31.5-7.4-63.1-14.8-94.9-20.9c-13.6-2.6-28.4-5.5-40.2,6.5     c-7.7-19.1-2-24.3,37.2-34.8c-4.7-31.9,5.3-46.8,28.6-40.8c-9,9.2-4.8,16.6,3.3,23.1c25.8,20.8,55.1,26.5,86.8,18.2     c18.1-4.7,29.9-22.9,24.4-41.4c-5.5-18.2-16-34.8-23.7-52.3c-1.9-4.2-3-9.8-1.8-14c1.8-6.2,5-11.3,14.3-10.8     c9.3,0.5,19.6-1.1,28-4.9c13.5-6.1,13.3-19.3-0.3-25.4c-8.1-3.6-18-5.4-26.8-4.8c-10.4,0.7-12.2-6.5-14.6-12.5     c-1.4-3.4,0-8.9,1.7-12.7c7.5-16.7,17.9-32.5,23-49.9c6.3-21.5-6.5-39.4-28.4-44.1c-29.6-6.4-57-0.9-81,18.1     c-7.9,6.3-15.5,13.5-4.6,24.1c-23.8,5.6-34.6-10.3-28.2-40.3c-16.2-7.6-43.9-2.6-39.7-36.4c17.8,15.5,36.2,9.2,53.8,5.7     c31.8-6.2,63.3-13.7,94.8-21.3c7.5-1.8,14.5-5.7,21.4-8.4c16.2,5,33.2,10.4,50.3,15.5c24,7.2,42.8,19.4,48.6,46     c3.6,16.4,0.3,31.6-9,44.5c-10.6,14.6-23.3,27.6-35.3,41.2c-5.7,6.5-11.8,12.8-19.2,20.8c28.1,7.1,48-5.2,68.3-18.6     c14,20.9,37,15.9,56.8,18.7c45.6,6.5,91.7,8.6,137.2-0.7c17.5-3.6,34.3-11,51-17.8c11-4.5,16.7-4,21.1,7.1     c9.8,25.2,10.2,51.1,1.5,76.7c-4,11.7-10.9,13.8-21.7,7.6c-25.9-14.8-54.4-20.3-83.5-22.3c-46.9-3.2-93.6,0-139.8,8.3     c-8.3,1.5-15.7,7.2-25.8,12.1c-16.6-10.8-36.3-25-62-17.8c-1.2,1.4-2.3,2.8-3.5,4.3c7.7,6.4,15.9,12.2,22.9,19.3     c11,11,22.9,21.7,31.4,34.5c24.7,37.3,9.2,80-33.2,94.1C281.9,724.5,263.1,729.8,245.6,735.1z"></path>			</g>		</g>	</g>	<polygon class="st4" points="411.1,550.9 356.9,625.4 356.9,668.1 545,668.1 545,621.7 425.8,621.7 478.1,550.9  "></polygon>	<polyline class="st4" points="482.8,530.6 502.4,502.1 542.4,447.6 542.4,405.4 356.9,405.4 356.9,451.7 473.5,451.7 429.6,511.3   415.8,530.6  "></polyline>	<polygon class="st4" points="637.6,562.7 757.3,562.7 757.3,550.5 585,550.5 585,664.9 759.9,664.9 759.9,618.6 637.6,618.6  "></polygon>	<polygon class="st4" points="585,410.1 585,530.7 757.3,530.7 757.3,508.6 637.6,508.6 637.6,456.4 759.9,456.4 759.9,410.1  "></polygon>	<polygon class="st4" points="969.5,573.1 952.9,550.5 887.8,550.5 971.4,664.9 1022.1,664.9 1022.1,550.5 969.5,550.5  "></polygon>	<rect x="969.5" y="410.1" class="st4" width="52.6" height="120.6"></rect>	<polygon class="st4" points="855.1,410.1 801,410.1 801,530.7 853.6,530.7 853.6,496 878.9,530.7 944,530.7  "></polygon>	<rect x="801" y="550.5" class="st4" width="52.6" height="114.4"></rect></g></svg>